<svg width="946" height="212" viewBox="0 0 946 212" fill="none" xmlns="http://www.w3.org/2000/svg">
<g clip-path="url(#clip0_1192_5908)">
<path fill-rule="evenodd" clip-rule="evenodd" d="M128.8 77.8C151.4 89.8 151.4 122.1 128.8 134.1L73.4 163.5C70.6 165 67.1 163.8 65.9 160.8C51.8 125.6 51.8 86.2 65.9 51C67.1 48 70.6 46.8 73.4 48.3L128.8 77.7V77.8ZM69.5 42C68.5 43.8 66.7 44.9 64.6 44.9H16.8C14.6 44.9 12.7 46.2 11.8 48.2C-3.89998 85.1 -3.89998 126.8 11.8 163.7C12.6 165.7 14.6 167 16.8 167H64.7C66.7 167 68.6 168.1 69.6 169.9L90.3 208.8C91.7 211.5 95.1 212.5 97.8 211.1L153.9 181.3C214.2 149.2 214.2 62.8 153.9 30.7L97.7 0.800027C95 -0.599973 91.7 0.400027 90.2 3.10003L69.5 42Z" fill="#FF4E2A"/>
<path d="M245.1 35.8999H289.7C304 35.8999 316.4 38.7999 327.1 44.6999C337.8 50.5999 346 58.7999 351.7 69.2999C357.4 79.7999 360.3 91.9999 360.3 105.9C360.3 119.8 357.4 131.8 351.7 142.4C346 153 337.8 161.2 327.1 167.1C316.4 173 304 175.9 289.7 175.9H245.1V35.8999ZM289.7 155.9C304.8 155.9 316.4 151.4 324.5 142.4C332.6 133.4 336.7 121.2 336.7 105.9C336.7 90.5999 332.6 78.3999 324.5 69.3999C316.4 60.3999 304.8 55.8999 289.7 55.8999H268.1V155.9H289.7Z" fill="white"/>
<path d="M448.3 81.8998C455.8 88.2998 459.5 97.3998 459.5 109.3V175.9H440.7L438.9 161.3C435 166.4 430.5 170.3 425.2 173C419.9 175.7 413.5 177.1 405.9 177.1C394.6 177.1 385.5 174.4 378.7 169.1C371.9 163.8 368.5 156.4 368.5 147.1C368.5 137.8 372.3 128.5 379.8 122.8C387.3 117.1 398.2 114.3 412.5 114.3H438.1V108.1C438.1 102.4 436.1 97.8998 432.1 94.5998C428.1 91.2998 422.6 89.6998 415.5 89.6998C408.4 89.6998 404.1 90.9998 400 93.6998C395.9 96.3998 393.5 99.9998 392.7 104.7H371.5C372.6 94.3998 377.1 86.4998 385.1 80.7998C393.1 75.0998 403.6 72.2998 416.5 72.2998C429.4 72.2998 440.8 75.4998 448.3 81.8998ZM430.4 153.1C435.4 148.3 438 141.9 438.1 133.9V130.3H411.3C404.6 130.3 399.5 131.6 395.9 134.2C392.3 136.8 390.5 140.6 390.5 145.7C390.5 150.8 392.2 153.6 395.6 156.3C399 159 403.6 160.3 409.5 160.3C418.4 160.3 425.4 157.9 430.4 153.1Z" fill="white"/>
<path d="M555.6 83.4998C563.3 90.9998 567.1 103 567.1 119.5V175.9H545.3V120.7C545.3 111 543.2 103.6 539.1 98.4998C535 93.3998 528.9 90.8998 520.9 90.8998C512.9 90.8998 505.7 93.8998 500.8 99.7998C495.9 105.7 493.5 113.9 493.5 124.3V175.9H471.9V73.4998H490.7L493.1 86.8998C500.8 77.1998 511.8 72.2998 525.9 72.2998C540 72.2998 547.9 75.9998 555.6 83.4998Z" fill="white"/>
<path d="M583.3 97.1998C587.5 89.2998 593.4 83.0998 600.9 78.7998C608.4 74.4998 617.1 72.2998 626.8 72.2998C636.5 72.2998 645.4 74.2998 652.9 78.2998C660.4 82.2998 666.4 87.9998 670.7 95.2998C675 102.6 677.3 111.2 677.4 121.1C677.4 123.8 677.2 126.5 676.8 129.3H599.6V130.5C600.1 139.4 602.9 146.5 608 151.7C613.1 156.9 619.8 159.5 628.2 159.5C636.6 159.5 640.5 157.9 645 154.8C649.5 151.7 652.5 147.2 654 141.5H675.6C673.7 151.9 668.7 160.4 660.5 167.1C652.3 173.8 642.1 177.1 629.8 177.1C617.5 177.1 609.8 174.9 601.9 170.6C594 166.3 587.8 160.2 583.5 152.3C579.2 144.4 577 135.3 577 124.9C577 114.5 579.1 105.1 583.3 97.1998ZM655.4 113.5C654.5 106 651.5 100.2 646.5 95.9998C641.5 91.7998 635.2 89.6998 627.6 89.6998C620 89.6998 614.4 91.8998 609.3 96.1998C604.2 100.5 601.2 106.3 600.4 113.5H655.4Z" fill="white"/>
<path d="M687.3 35.8999H708.9V175.9H687.3V35.8999Z" fill="white"/>
<path d="M725 97.1998C729.2 89.2998 735.1 83.0998 742.6 78.7998C750.1 74.4998 758.8 72.2998 768.5 72.2998C778.2 72.2998 787.1 74.2998 794.6 78.2998C802.1 82.2998 808.1 87.9998 812.4 95.2998C816.7 102.6 819 111.2 819.1 121.1C819.1 123.8 818.9 126.5 818.5 129.3H741.3V130.5C741.8 139.4 744.6 146.5 749.7 151.7C754.8 156.9 761.5 159.5 769.9 159.5C778.3 159.5 782.2 157.9 786.7 154.8C791.2 151.7 794.2 147.2 795.7 141.5H817.3C815.4 151.9 810.4 160.4 802.2 167.1C794 173.8 783.8 177.1 771.5 177.1C759.2 177.1 751.5 174.9 743.6 170.6C735.7 166.3 729.5 160.2 725.2 152.3C720.9 144.4 718.7 135.3 718.7 124.9C718.7 114.5 720.8 105.1 725 97.1998ZM797.1 113.5C796.2 106 793.2 100.2 788.2 95.9998C783.2 91.7998 776.9 89.6998 769.3 89.6998C761.7 89.6998 756.1 91.8998 751 96.1998C745.9 100.5 742.9 106.3 742.1 113.5H797.1Z" fill="white"/>
<path d="M910.1 167C901.8 173.7 891.2 177.1 878.3 177.1C865.4 177.1 859.2 174.9 851.5 170.6C843.8 166.3 837.8 160.1 833.6 152.1C829.4 144.1 827.3 134.9 827.3 124.5C827.3 114.1 829.4 105 833.7 97.0998C838 89.1998 844 83.0998 851.8 78.7998C859.6 74.4998 868.6 72.2998 878.9 72.2998C889.2 72.2998 902.2 75.6998 910.3 82.3998C918.4 89.0998 923.5 98.2998 925.5 109.9H903.3C901.8 104 898.9 99.3998 894.5 95.8998C890.1 92.3998 884.7 90.6998 878.3 90.6998C871.9 90.6998 862.7 93.7998 857.4 100.1C852.1 106.4 849.5 114.5 849.5 124.5C849.5 134.5 852.1 142.9 857.4 149.2C862.7 155.5 869.6 158.7 878.3 158.7C887 158.7 890.5 156.9 894.9 153.4C899.3 149.9 902.2 145.1 903.5 139.1H925.5C923.5 151 918.4 160.3 910.1 167Z" fill="white"/>
<path d="M924.5 77.8999C925.5 76.1999 926.8 74.7999 928.6 73.8999C930.3 72.8999 932.2 72.3999 934.3 72.3999C936.4 72.3999 938.4 72.8999 940.1 73.8999C941.8 74.8999 943.2 76.1999 944.2 77.8999C945.2 79.5999 945.7 81.4999 945.7 83.5999C945.7 85.6999 945.2 87.5999 944.2 89.2999C943.2 90.9999 941.8 92.2999 940.1 93.2999C938.4 94.2999 936.5 94.7999 934.3 94.7999C932.1 94.7999 930.3 94.2999 928.6 93.2999C926.9 92.2999 925.5 90.9999 924.5 89.2999C923.5 87.5999 923 85.6999 923 83.6999C923 81.6999 923.5 79.6999 924.5 77.9999V77.8999ZM942.1 78.8999C941.3 77.4999 940.3 76.4999 938.9 75.6999C937.5 74.8999 936 74.4999 934.3 74.4999C932.6 74.4999 931.1 74.8999 929.8 75.6999C928.4 76.4999 927.4 77.5999 926.6 78.8999C925.8 80.2999 925.5 81.7999 925.5 83.5999C925.5 85.3999 925.9 86.7999 926.6 88.1999C927.4 89.5999 928.4 90.5999 929.8 91.3999C931.2 92.1999 932.7 92.4999 934.3 92.4999C935.9 92.4999 937.5 92.0999 938.9 91.2999C940.3 90.4999 941.3 89.4999 942.1 88.0999C942.9 86.6999 943.2 85.1999 943.2 83.4999C943.2 81.7999 942.8 80.2999 942.1 78.8999ZM934.8 77.3999C936.2 77.3999 937.4 77.7999 938.3 78.4999C939.2 79.1999 939.6 80.1999 939.6 81.2999C939.6 82.3999 939.3 82.9999 938.8 83.5999C938.3 84.1999 937.6 84.5999 936.7 84.8999L939.6 89.7999H936.9L934.3 85.3999H932.4V89.7999H930V77.3999H934.8ZM932.5 83.2999H934.7C935.4 83.2999 936 83.0999 936.4 82.7999C936.9 82.3999 937.1 81.8999 937.1 81.2999C937.1 80.6999 936.9 80.1999 936.4 79.8999C936 79.5999 935.4 79.3999 934.7 79.3999H932.5V83.3999V83.2999Z" fill="white"/>
</g>
<defs>
<clipPath id="clip0_1192_5908">
<rect width="945.7" height="211.9" fill="white"/>
</clipPath>
</defs>
</svg>
